<svg width="26" height="26" viewBox="0 0 26 26" version="1.1" xmlns="http://www.w3.org/2000/svg" xmlns:xlink="http://www.w3.org/1999/xlink">
<g id="Canvas" fill="none">
<g id="&#239;&#131;&#163;">
<path d="M 25.6953 22C 25.6953 21.5067 25.4922 21.0279 25.1585 20.6797L 19.8917 15.4129C 19.5435 15.0792 19.0647 14.8761 18.5714 14.8761C 18.0201 14.8761 17.5703 15.1083 17.1786 15.5L 13.4643 11.7857L 15.2924 9.95759C 15.423 9.82701 15.4955 9.6529 15.4955 9.46429C 15.4955 9.27567 15.423 9.10156 15.2924 8.97098C 15.7277 9.40625 16.0469 9.8125 16.7143 9.8125C 17.0915 9.8125 17.4252 9.66741 17.7009 9.40625C 18.2232 8.91295 18.9196 8.39062 18.9196 7.60714C 18.9196 7.24442 18.7746 6.8817 18.5134 6.62054L 12.5938 0.700894C 12.3326 0.439731 11.9699 0.294644 11.6071 0.294644C 10.8237 0.294644 10.3013 0.991071 9.80804 1.51339C 9.54688 1.78906 9.40179 2.12277 9.40179 2.5C 9.40179 3.16741 9.80804 3.48661 10.2433 3.92188C 10.1127 3.79129 9.93862 3.71875 9.75 3.71875C 9.56138 3.71875 9.38728 3.79129 9.2567 3.92188L 4.20759 8.97098C 4.07701 9.10156 4.00446 9.27567 4.00446 9.46429C 4.00446 9.6529 4.07701 9.82701 4.20759 9.95759C 3.77232 9.52232 3.45312 9.11607 2.78571 9.11607C 2.40848 9.11607 2.07478 9.26116 1.79911 9.52232C 1.27679 10.0156 0.580357 10.5379 0.580357 11.3214C 0.580357 11.6842 0.725446 12.0469 0.986607 12.308L 6.90625 18.2277C 7.16741 18.4888 7.53013 18.6339 7.89286 18.6339C 8.67634 18.6339 9.19866 17.9375 9.69196 17.4152C 9.95312 17.1395 10.0982 16.8058 10.0982 16.4286C 10.0982 15.7612 9.69196 15.442 9.2567 15.0067C 9.38728 15.1373 9.56138 15.2098 9.75 15.2098C 9.93862 15.2098 10.1127 15.1373 10.2433 15.0067L 12.0714 13.1786L 15.7857 16.8929C 15.394 17.2846 15.1618 17.7344 15.1618 18.2857C 15.1618 18.779 15.365 19.2578 15.7132 19.5915L 20.9799 24.8728C 21.3136 25.2065 21.7924 25.4096 22.2857 25.4096C 22.779 25.4096 23.2578 25.2065 23.606 24.8728L 25.1585 23.3058C 25.4922 22.9721 25.6953 22.4933 25.6953 22Z" fill="#282828"/>
</g>
</g>
</svg>

